<svg id="Layer_1" data-name="Layer 1" xmlns="http://www.w3.org/2000/svg" xmlns:xlink="http://www.w3.org/1999/xlink" viewBox="0 0 638 692"><defs><style>.cls-1{fill:#c3c4c9;}.cls-2,.cls-6{fill:#ccc;}.cls-2{stroke:#b3b3b3;stroke-miterlimit:10;}.cls-3{fill:#fff;}.cls-4{fill:url(#radial-gradient);}.cls-5{fill:url(#radial-gradient-2);}.cls-7{fill:#b3b3b3;}.cls-8{fill:url(#radial-gradient-3);}.cls-9{fill:url(#radial-gradient-4);}.cls-10{fill:#999;}.cls-11{fill:#f2f2f2;}.cls-12{fill:#1a1a1a;}.cls-13{fill:#333;}.cls-14{font-size:5px;font-family:OpenSans-Bold, Open Sans;font-weight:700;letter-spacing:0.03em;}</style><radialGradient id="radial-gradient" cx="487.74" cy="850.7" r="0.5" gradientTransform="translate(97.67) scale(0.85 1)" gradientUnits="userSpaceOnUse"><stop offset="0.01" stop-color="#666"/><stop offset="0.21" stop-color="#b3b3b3"/></radialGradient><radialGradient id="radial-gradient-2" cx="350.2" cy="672.72" r="649.4" gradientTransform="translate(97.03 380.01) scale(0.85 0.44)" gradientUnits="userSpaceOnUse"><stop offset="0.01" stop-color="#ccc"/><stop offset="0.88" stop-color="#e6e6e6"/></radialGradient><radialGradient id="radial-gradient-3" cx="256.95" cy="698" r="263.93" gradientTransform="translate(98.36 207.38) scale(0.85 0.69)" gradientUnits="userSpaceOnUse"><stop offset="0" stop-color="#b3b3b3"/><stop offset="0.21" stop-color="#999"/></radialGradient><radialGradient id="radial-gradient-4" cx="257.95" cy="698" r="263.93" gradientTransform="translate(97.64 207.38) scale(0.85 0.69)" gradientUnits="userSpaceOnUse"><stop offset="0" stop-color="#999"/><stop offset="1" stop-color="#b3b3b3"/></radialGradient></defs><title>whiteboardSvg</title><g id="Upper_Board" data-name="Upper Board"><rect class="cls-1" width="616.12" height="665.27"/><rect class="cls-2" x="0.5" y="0.5" width="622.5" height="677"/><rect class="cls-1" width="617" height="666.67"/><rect class="cls-3" width="611.63" height="653.45"/></g><rect class="cls-1" y="656" width="620.61" height="22"/><rect class="cls-4" y="674" width="632.35" height="4"/><rect class="cls-5" y="676.86" width="632.03" height="15.14"/><rect class="cls-6" x="632.03" y="674" width="5.97" height="18"/><rect class="cls-7" x="633.85" y="674" width="4.15" height="18"/><rect class="cls-8" y="689.23" width="631.36" height="2.77"/><rect class="cls-9" y="689.23" width="632.21" height="2.77"/><path class="cls-10" d="M632,676.86c-.6-.17-4.22,1.29-4.71,3.53-1.52,7.08,4.56,8.6,4.71,8.84Z" transform="translate(0)"/><rect class="cls-11" x="460.22" y="660" width="62.3" height="12"/><path class="cls-12" d="M458.07,660h2.15a0,0,0,0,1,0,0v12a0,0,0,0,1,0,0h-2.15a2,2,0,0,1-2-2v-8A2,2,0,0,1,458.07,660Z"/><rect class="cls-12" x="464.38" y="663" width="16.61" height="6"/><rect class="cls-12" x="522.53" y="660" width="12.46" height="12"/><rect class="cls-12" x="534.99" y="661" width="6.65" height="10"/><rect class="cls-12" x="539.14" y="662.25" width="4.98" height="7.5"/><rect class="cls-13" x="522.53" y="666" width="12.46" height="6"/><text class="cls-14" transform="translate(483.48 667.64) scale(0.83 1)">WHITEBOARD</text></svg>