<svg viewBox="0 0 685.7 233.12"><circle class="cls-1" cx="260.21" cy="112" r="105"/><text class="cls-2" transform="translate(214.27 179.9)">J</text><text class="cls-3" transform="translate(387.98 185.96)">li<tspan class="cls-4" x="96.84" y="0">v</tspan><tspan x="191.52" y="0">a</tspan></text><text x="133.21" y="-26"/><path class="cls-5" d="M50.27,63l-.53,4.82c-1.88,16.82,3,33.57,12.51,44.61,3.87,4.47,4,14.7,4,21.64,0,7.83-4.32,19.9-10.6,33.18-5.66,12-7.21,26.69-4.29,40.36L53.18,216" transform="translate(133.21 -26)"/><path class="cls-6" d="M58.7,83.94,43,94.59h0a4.43,4.43,0,0,0,6.09.56l7.67-5.78A6.49,6.49,0,0,0,59,84.19h0C59,84,58.84,83.84,58.7,83.94Z" transform="translate(133.21 -26)"/><path class="cls-6" d="M63.79,97.76l-15.7,10.65h0a4.43,4.43,0,0,0,6.09.56l7.67-5.78A6.51,6.51,0,0,0,64.1,98h0C64.1,97.8,63.93,97.66,63.79,97.76Z" transform="translate(133.21 -26)"/><path class="cls-6" d="M73.56,117.27l-17.19,4.78h0c1.36,2.36,3.62,3.41,5.77,2.68l8.51-2.89a5.35,5.35,0,0,0,3.16-4.21h0C73.85,117.42,73.72,117.23,73.56,117.27Z" transform="translate(133.21 -26)"/><path class="cls-6" d="M57.46,138.91l17.54,1h0c-.91-2.74-2.91-4.5-5.13-4.49H61.1a4.37,4.37,0,0,0-3.81,3h0C57.21,138.67,57.31,138.9,57.46,138.91Z" transform="translate(133.21 -26)"/><path class="cls-6" d="M51.69,153.79l16.83,6.76h0c-.39-3-2-5.33-4.17-6.06l-8.51-2.88a3.69,3.69,0,0,0-4.24,1.71h0A.33.33,0,0,0,51.69,153.79Z" transform="translate(133.21 -26)"/><path class="cls-6" d="M45.87,167.61l16.83,6.76h0c-.39-3-2-5.33-4.17-6.06L50,165.43a3.68,3.68,0,0,0-4.24,1.71h0A.33.33,0,0,0,45.87,167.61Z" transform="translate(133.21 -26)"/><path class="cls-5" d="M206.39,67.64l.48,4.88c1.68,17-2.65,34-11.15,45.19-3.45,4.54-3.59,14.89-3.59,21.93,0,7.93,3.85,20.16,9.44,33.61,5.05,12.14,4.2,22.91,1.59,36.75l1.94,4" transform="translate(133.21 -26)"/><path class="cls-6" d="M197.22,90.53l11.77,10h0c-1.33,1.7-3.12,1.9-4.57.53l-5.75-5.44A6.91,6.91,0,0,1,197,90.77h0C197,90.57,197.11,90.44,197.22,90.53Z" transform="translate(133.21 -26)"/><path class="cls-6" d="M193.4,103.54l11.77,10h0c-1.33,1.7-3.12,1.91-4.56.53l-5.75-5.44a6.9,6.9,0,0,1-1.69-4.88h0C193.17,103.58,193.3,103.45,193.4,103.54Z" transform="translate(133.21 -26)"/><path class="cls-6" d="M186.08,121.92,199,126.41h0c-1,2.23-2.72,3.22-4.33,2.53l-6.38-2.72c-1.15-.49-2.06-2-2.37-4h0C185.86,122.06,186,121.88,186.08,121.92Z" transform="translate(133.21 -26)"/><path class="cls-6" d="M198.15,142.29l-13.15.94h0c.68-2.58,2.18-4.23,3.84-4.23h6.58c1.19,0,2.28,1.11,2.86,2.88h0C198.33,142.06,198.26,142.28,198.15,142.29Z" transform="translate(133.21 -26)"/><path class="cls-6" d="M202.47,156.3l-12.61,6.36h0c.29-2.78,1.51-5,3.12-5.7l6.38-2.71c1.15-.49,2.37.12,3.18,1.6h0C202.62,156,202.59,156.24,202.47,156.3Z" transform="translate(133.21 -26)"/><path class="cls-6" d="M206.84,169.31l-12.62,6.36h0c.29-2.78,1.51-5,3.12-5.7l6.38-2.71c1.16-.49,2.38.13,3.19,1.6h0A.37.37,0,0,1,206.84,169.31Z" transform="translate(133.21 -26)"/><text x="133.21" y="-26"/></svg>