<svg id="Layer_1" data-name="Layer 1" xmlns="http://www.w3.org/2000/svg" viewBox="0 0 88.06 12"><defs><style>.cls-1{fill:#f2f2f2;}.cls-2{fill:#1a1a1a;}.cls-3{fill:#333;}.cls-4{font-size:5px;font-family:OpenSans-Bold, Open Sans;font-weight:700;letter-spacing:0.03em;}</style></defs><title>marker</title><g id="Upper_Board" data-name="Upper Board"><g id="Marker"><rect class="cls-1" x="4.15" width="62.3" height="12"/><path class="cls-2" d="M2,0H4.15a0,0,0,0,1,0,0V12a0,0,0,0,1,0,0H2a2,2,0,0,1-2-2V2A2,2,0,0,1,2,0Z"/><rect class="cls-2" x="8.31" y="3" width="16.61" height="6"/><rect class="cls-2" x="66.46" width="12.46" height="12"/><rect class="cls-2" x="78.92" y="1" width="6.65" height="10"/><rect class="cls-2" x="83.07" y="2.25" width="4.98" height="7.5"/><rect class="cls-3" x="66.46" y="6" width="12.46" height="6"/><text class="cls-4" transform="translate(27.41 7.64) scale(0.83 1)">WHITEBOARD</text></g></g></svg>